<svg xmlns="http://www.w3.org/2000/svg" viewBox="0 0 400 280"><title>Bitcrowd Logo</title><path fill="#000" d="M76.7 257a17.4 17.4 0 0 1-17.4 17.5h-.4A17.4 17.4 0 0 1 41.5 257v-44.3H46a4.6 4.6 0 0 1 4.5 4.5v11.1c0 .4.1.4.5.3a16.5 16.5 0 0 1 7.9-1.9h.4a17.4 17.4 0 0 1 17.4 17.5V257zm-9.1 0v-12.9a8.1 8.1 0 0 0-2.5-5.9 8 8 0 0 0-5.9-2.5h-.3a8 8 0 0 0-5.9 2.5 8.1 8.1 0 0 0-2.5 5.9V257a8.1 8.1 0 0 0 2.5 5.9 8 8 0 0 0 5.9 2.5h.4a8 8 0 0 0 5.9-2.5 8.1 8.1 0 0 0 2.5-5.9zm31.9-39a5.5 5.5 0 1 1-9.3-3.9 5.5 5.5 0 0 1 7.7 0 5.2 5.2 0 0 1 1.6 3.9zm-.9 52a4.4 4.4 0 0 1-1.3 3.3 4.6 4.6 0 0 1-6.4 0 4.4 4.4 0 0 1-1.3-3.3v-38.8a4.5 4.5 0 0 1 9.1 0v38.7zm36.8-3.2a4.4 4.4 0 0 0-3.2-1.3h-2.4a8 8 0 0 1-5.9-2.5 8.1 8.1 0 0 1-2.5-5.9v-20.8a.5.5 0 0 1 .6-.6h10.2a4.5 4.5 0 0 0 0-9.1H122a.5.5 0 0 1-.6-.6v-9a4.5 4.5 0 0 0-9.1 0v40a17.4 17.4 0 0 0 17.4 17.5h2.4a4.4 4.4 0 0 0 3.2-1.3 4.3 4.3 0 0 0 1.3-3.2 4.4 4.4 0 0 0-1.2-3.3zm194.8-127.4a99.3 99.3 0 0 0 32.4-28.6c6.8-9.6 9-16.7 9-18.2s-3.5-10.2-11.4-20.6a97.2 97.2 0 0 0-36.7-29.8c-18.7-8.5-40.7-12.7-67.1-12.7-19.6 0-38.7 2.4-51.3 4.2-10.9 1.5-21.7 3.5-32.4 5.9l-2.3.5L162 23a36.3 36.3 0 0 0-6.7-8.7 31.7 31.7 0 0 0-8.6-5.8 33.9 33.9 0 0 0-8.6-2.6 45.5 45.5 0 0 0-7.5-.6H79.4a17.3 17.3 0 0 0 0 34.5h52.5l4.7 9.5-8 2.7c-7.1 2.5-14.1 5.2-20.7 8l-2.5 1.3c-2 1.3-4.8 3.1-6.2 5.1a17.1 17.1 0 0 0-2.5 6.3l-.4 2.4-50.7.5a17.2 17.2 0 0 0 0 34.3l50.7-.3.4 2.5a17 17 0 0 0 3.1 7.1c2 2.8 5.8 4.8 9 6h.1c6.5 2.8 13.3 5.4 20.2 7.8l7.6 2.6-4.8 9.7H79.4a17.3 17.3 0 0 0 0 34.5c5.9 0 56.3-.3 58.7-.6a34 34 0 0 0 8.6-2.6 31.7 31.7 0 0 0 8.6-5.8 36.3 36.3 0 0 0 6.6-8.6l7.6-15.2 1-2.1 2.3.5c7.7 1.7 15.7 3.2 23.6 4.5s17.2 2.5 25.8 3.4l1.7.2 1.3 2.7a38.9 38.9 0 0 0 70.8-.7c.4-.9 1.6-4.1 1.6-4.1l1.6-.4c12.5-3.2 22.7-6.9 31-11.6z"/><path fill="#999" d="M179.3 265.5a17.5 17.5 0 0 1-15.4 9.2h-.4a16.9 16.9 0 0 1-12.4-5.1 16.7 16.7 0 0 1-5.1-12.3V244a17.6 17.6 0 0 1 17.5-17.5h.4a17 17 0 0 1 8.8 2.5 17.4 17.4 0 0 1 6.4 6.6 4.5 4.5 0 0 1 .6 2.2 4.3 4.3 0 0 1-1.3 3.2 4.4 4.4 0 0 1-3.2 1.3 4.3 4.3 0 0 1-4-2.4 7.9 7.9 0 0 0-7.4-4.4h-.4a8.4 8.4 0 0 0-8.4 8.4v13.3a8.4 8.4 0 0 0 8.4 8.3h.4a7.9 7.9 0 0 0 7.4-4.4 4.3 4.3 0 0 1 4-2.4 4.5 4.5 0 0 1 3.3 1.3 4.5 4.5 0 0 1 1.3 3.3 4.4 4.4 0 0 1-.6 2.1zm37.5-28.2a4.5 4.5 0 0 0 3.3-1.3 4.4 4.4 0 0 0 1.3-3.2 4.2 4.2 0 0 0-3.1-4.3l-1.6-.6a18.4 18.4 0 0 0-6.5-1.3 18.9 18.9 0 0 0-11.1 3.5 18.4 18.4 0 0 0-8.2 15.9v23.8a4.5 4.5 0 0 0 4.5 4.6 4.5 4.5 0 0 0 3.3-1.3 4.4 4.4 0 0 0 1.3-3.3v-23.7a10.4 10.4 0 0 1 10.2-10.3 10.5 10.5 0 0 1 3.5.8l1.6.6 1.5.3zm45.2 19.9V244a16.9 16.9 0 0 0-5.1-12.4 16.7 16.7 0 0 0-12.3-5.1h-.4a16.7 16.7 0 0 0-12.3 5.1 16.9 16.9 0 0 0-5.1 12.4v13.3a17.4 17.4 0 0 0 17.4 17.4h.4a17.4 17.4 0 0 0 17.4-17.5zm-9.1 0a8.4 8.4 0 0 1-8.3 8.3h-.4a8.4 8.4 0 0 1-8.3-8.3V244a8.1 8.1 0 0 1 2.5-6 8 8 0 0 1 5.9-2.5h.4a8 8 0 0 1 5.9 2.5 8.1 8.1 0 0 1 2.5 6v13.3zm72.4-24.6a4.1 4.1 0 0 0 .2-1.2 4.6 4.6 0 0 0-4.5-4.5c-2.3 0-3.7 1.2-4.4 3.4l-7.3 23.7-7.5-23.6c-.8-2.2-2.1-3.4-4.4-3.4s-3.6 1.2-4.4 3.4c0 0-7.4 23.8-7.4 23.7l-7.3-23.7c-.7-2.2-2.1-3.4-4.5-3.4a4.4 4.4 0 0 0-3.2 1.3 4.3 4.3 0 0 0-1.4 3.2 4.1 4.1 0 0 0 .2 1.2l11.8 38.5c.7 2.2 2 3.4 4.4 3.4s3.7-1.2 4.5-3.4c0 0 7.3-22.8 7.3-22.7l7.4 22.7c.8 2.2 2.1 3.4 4.5 3.4s3.7-1.2 4.4-3.4l11.8-38.5zm42.8 24.4v-44.3h-4.5a4.6 4.6 0 0 0-4.5 4.5v11.1c0 .4-.1.4-.5.3a16.5 16.5 0 0 0-7.9-1.9h-.4a17.4 17.4 0 0 0-17.4 17.5V257a17.4 17.4 0 0 0 17.4 17.5h.4a17.4 17.4 0 0 0 17.4-17.5zm-11.5 5.9a8 8 0 0 1-5.9 2.5h-.4a8 8 0 0 1-5.9-2.5 8.1 8.1 0 0 1-2.5-5.9v-12.9a8.1 8.1 0 0 1 2.5-5.9 8 8 0 0 1 5.9-2.5h.4a8 8 0 0 1 5.9 2.5 8.1 8.1 0 0 1 2.5 5.9V257a8.1 8.1 0 0 1-2.6 5.9zM45.6 97.2a4.5 4.5 0 1 1 3.2-1.3 4.5 4.5 0 0 1-3.2 1.3zm22.5.2h-9a4.5 4.5 0 0 1 0-9h9a4.5 4.5 0 0 1 0 9zm272.2 11.1h-37.7l-11.7-22.6H231a4.5 4.5 0 0 1 0-9h65.4L308 99.6h41.2zM160.8 97.4H92.2a4.5 4.5 0 0 1 0-9h68.5a4.5 4.5 0 0 1 .1 9z"/><path fill="#fff" d="M82.6 159.4a4.5 4.5 0 1 1-3.2-1.3 4.5 4.5 0 0 1 3.2 1.3zM79.5 18.1a4.5 4.5 0 1 0 3.2 1.3 4.5 4.5 0 0 0-3.2-1.3zM162.2 64a4.8 4.8 0 0 0 2.8-6.5l-15.6-29.9a17.5 17.5 0 0 0-15.6-9.5h-17.5a4.5 4.5 0 0 0 0 9h17.6a8.5 8.5 0 0 1 7.6 4.6l13.2 25.4a319.5 319.5 0 0 0-46 20.5 4.5 4.5 0 0 0-2.3 4.1h13.8a311.7 311.7 0 0 1 42-17.7zm-68.8 94a4.5 4.5 0 0 0 0 9 4.5 4.5 0 0 0 4.5-4.5 4.5 4.5 0 0 0-4.5-4.5zm0-139.9a4.5 4.5 0 1 0 3.2 1.3 4.5 4.5 0 0 0-3.2-1.3zM359.9 93a4.5 4.5 0 0 1-.5 1.5v.2c-.5 1-7.5 12.8-23 24.6a116.1 116.1 0 0 1-49.6 22.4 27 27 0 0 1-53.7.8 354.9 354.9 0 0 1-69.4-12.4l-14.5 28a17.5 17.5 0 0 1-15.6 9.5h-17.5a4.5 4.5 0 0 1 0-9h17.6a8.5 8.5 0 0 0 7.6-4.6l13.7-26.5c-28.3-8.9-45.2-18.2-46.5-19a4.5 4.5 0 0 1-2.3-4.3H120c18.4 8.7 71 30.3 140.1 30.3h-.1c27.5 0 51.2-7.4 70.6-22.1a89.9 89.9 0 0 0 19.8-20.3c-4.3-9.2-17.6-19.8-18.2-20.2C306 53.1 283.5 50 258.3 50c-18.3 0-48.2 2.3-71.1 7.5l21.1 42h53.3a4.5 4.5 0 0 1 0 9h-59l-26.1-52-.2-.4-.2-.4v-.5a4.4 4.4 0 0 1-.1-.5v-.4a4.5 4.5 0 0 1 0-.5V53l.2-.4.2-.4.2-.3.3-.4.3-.3.3-.3.4-.3.3-.2.4-.2.4-.2c25.6-6.3 50-9.1 78.6-9.1 45.3 0 65.1 12.7 80.2 24.1s21 24.7 21.4 25.7a4.5 4.5 0 0 1 .7 2.3zm-82.3 49.8c-6.1.6-12 .8-17.3.8s-12.1-.2-17.9-.5a18 18 0 0 0 35.2-.4z"/></svg>