<svg xmlns="http://www.w3.org/2000/svg">
  <symbol id="icon-home" viewBox="0 0 100 100">
    <path d="M11.49,95A6.5,6.5,0,0,1,5,88.55v-44a6.5,6.5,0,0,1,2.34-5l38.41-33a6.47,6.47,0,0,1,8.48,0l38.44,33a6.58,6.58,0,0,1,2.31,5V88.41A6.5,6.5,0,0,1,88.62,95h-26a6.52,6.52,0,0,1-6.51-6.51V68.33a.83.83,0,0,0-.83-.83H44.72a.83.83,0,0,0-.83.83V88.45A6.5,6.5,0,0,1,37.44,95H11.49ZM50,10.72a.8.8,0,0,0-.52.19L11,43.9a.85.85,0,0,0-.32.65v44a.79.79,0,0,0,.25.54.76.76,0,0,0,.57.23H37.41a.79.79,0,0,0,.77-.81V68.33a6.54,6.54,0,0,1,6.54-6.53H55.28a6.54,6.54,0,0,1,6.54,6.53V88.49a.8.8,0,0,0,.8.8H88.56a.8.8,0,0,0,.73-.82V44.56a.86.86,0,0,0-.31-.65l-38.44-33A.8.8,0,0,0,50,10.72Z"/>
  </symbol>
  <symbol id="icon-check-circle" viewBox="0 0 100 100">
    <path d="m50.1 5.1a45 45 0 1 0 45 45 45 45 0 0 0 -45-45zm28.67 30.09-34.95 35.09a3.81 3.81 0 0 1 -2.74 1.14 3.83 3.83 0 0 1 -2.75-1.14l-17.09-17.16a3.87 3.87 0 0 1 0-5.46 4 4 0 0 1 5.49 0l14.35 14.4 32.21-32.33a4 4 0 0 1 5.48 0 3.87 3.87 0 0 1 0 5.46z" fill-rule="evenodd"/>
  </symbol>
  <symbol id="icon-check" viewBox="0 0 100 100">
    <path d="M86.82,24a5.3,5.3,0,0,0-7.49,0L38.66,64.81l-18-18.06a5.3,5.3,0,0,0-7.49,0,5.3,5.3,0,0,0,0,7.46L34.91,76a5.22,5.22,0,0,0,3.74,1.55h0A5.22,5.22,0,0,0,42.39,76l44.43-44.6A5.29,5.29,0,0,0,86.82,24Z"/>
  </symbol>
  <symbol id="icon-exclamation" viewBox="0 0 100 100">
    <path d="M93.17,76.55,57.79,15.29a9,9,0,0,0-15.58,0L6.83,76.55a9,9,0,0,0,7.8,13.5H85.37A9,9,0,0,0,93.17,76.55ZM45.69,28.08a4.07,4.07,0,0,1,8.12,0V59.71a4.07,4.07,0,0,1-8.12,0Zm4.06,51.57a5.49,5.49,0,1,1,5.49-5.48A5.49,5.49,0,0,1,49.75,79.65Z" fill-rule="evenodd"/>
  </symbol>
  <symbol id="icon-filter" viewBox="0 0 100 100">
    <path d="M53.44,66.53a3.45,3.45,0,1,1,0,6.89H46.56a3.45,3.45,0,1,1,0-6.89h6.88ZM63.78,49.31a3.45,3.45,0,0,1,0,6.89H36.22a3.45,3.45,0,0,1,0-6.89H63.78ZM74.11,32.09a3.45,3.45,0,0,1,0,6.89H25.89a3.45,3.45,0,0,1,0-6.89H74.11ZM50,11.43A38.57,38.57,0,1,1,11.43,50,38.61,38.61,0,0,1,50,11.43M50,5A45,45,0,1,0,95,50,45,45,0,0,0,50,5Z"/>
  </symbol>
  <symbol id="icon-info-circle" viewBox="0 0 100 100">
    <path d="M50.1,5.1a45,45,0,1,0,45,45A45,45,0,0,0,50.1,5.1Zm-.33,17a4.54,4.54,0,1,1-4.54,4.54A4.54,4.54,0,0,1,49.77,22.09ZM64,77.2H36a4.19,4.19,0,0,1,0-8.38h9.77V42.17H40.23a4.19,4.19,0,0,1,0-8.38h8.37a5.35,5.35,0,0,1,.7.07,4.05,4.05,0,0,1,.7-.07A4.2,4.2,0,0,1,54.2,38V68.82H64a4.19,4.19,0,0,1,0,8.38Z" fill-rule="evenodd"/>
  </symbol>
  <symbol id="icon-mail" viewBox="0 0 100 100">
    <path d="M92.62,23.79A9.11,9.11,0,0,0,86,21.41H14.14a9.17,9.17,0,0,0-6.73,2.38A9.2,9.2,0,0,0,5,30.51v39a9.14,9.14,0,0,0,2.41,6.69,9.39,9.39,0,0,0,6.79,2.41H85.93a9.16,9.16,0,0,0,6.7-2.45A9.27,9.27,0,0,0,95,69.39v-39A9.1,9.1,0,0,0,92.62,23.79ZM53.56,27.37c11.62,0,22.43,0,31.48.09L51.6,54.55a3.26,3.26,0,0,1-3.2,0L15,27.49C26.56,27.41,40.14,27.37,53.56,27.37ZM11,68.86c-.09-13.72-.08-26.8-.06-37.1L33.27,49.89Zm52.8,3.82c-14.89,0-30,0-43.42,0H15.68L38,53.67l2.4,1.95c1.67,1.36,3.4,2.77,5.08,4.09l.07.06.08,0a9.79,9.79,0,0,0,8.82,0l.08,0,.07-.06c1.94-1.51,3.91-3.13,5.82-4.69L62,53.67l22.28,19ZM89,68.87l-22.26-19L89.07,31.76C89.09,42.86,89.1,56.57,89,68.87Z"/>
  </symbol>
  <symbol id="icon-question-circle" viewBox="0 0 100 100">
    <path d="m50.1 5.1a45 45 0 1 0 45 45 45 45 0 0 0 -45-45zm-1 75.81a5 5 0 1 1 5-5 5 5 0 0 1 -5.04 5zm6.87-24.58a5 5 0 0 0 -3.29 4.8v2.56a3.58 3.58 0 1 1 -7.15 0v-2.56a12.06 12.06 0 0 1 7.88-11.48 12 12 0 0 0 -4.31-23.17 11.79 11.79 0 0 0 -10 5.31l-.43.68a3.59 3.59 0 0 1 -3.1 1.79 3.52 3.52 0 0 1 -1.79-.49 3.58 3.58 0 0 1 -1.31-4.89 19.16 19.16 0 1 1 23.46 27.45z" fill-rule="evenodd"/>
  </symbol>
  <symbol id="icon-cross" viewBox="0 0 100 100">
    <path d="M84.12,76.7,57.43,50,84.12,23.3a5.25,5.25,0,0,0-7.42-7.42L50,42.57,23.3,15.88a5.25,5.25,0,0,0-7.42,7.42L42.57,50,15.88,76.7a5.25,5.25,0,1,0,7.42,7.42L50,57.43,76.7,84.12a5.25,5.25,0,1,0,7.42-7.42Z"/>
  </symbol>
  <symbol id="icon-plus" viewBox="0 0 100 100">
    <path d="M54.57,87.43V54.57H87.43a4.57,4.57,0,0,0,0-9.14H54.57V12.57a4.57,4.57,0,1,0-9.14,0V45.43H12.57a4.57,4.57,0,0,0,0,9.14H45.43V87.43a4.57,4.57,0,0,0,9.14,0Z"/>
  </symbol>
  <symbol id="icon-minus" viewBox="0 0 100 100">
    <path d="M89.49,45.49h-79a4.51,4.51,0,0,0,0,9h79a4.51,4.51,0,1,0,0-9Z" fill-rule="evenodd"/>
  </symbol>
  <symbol id="icon-hamburger" viewBox="0 0 100 100">
    <path d="M6,25.57a4.58,4.58,0,0,1,3.23-7.82H88.9a4.58,4.58,0,0,1,0,9.15H9.25A4.54,4.54,0,0,1,6,25.57ZM88.9,45.43H9A4.59,4.59,0,0,0,4.68,50a4.56,4.56,0,0,0,4.57,4.57H88.9A4.58,4.58,0,0,0,93.48,50h0A4.59,4.59,0,0,0,88.9,45.43Zm0,27.67H9.25a4.58,4.58,0,0,0,0,9.15H88.9a4.58,4.58,0,1,0,0-9.15Z"/>
  </symbol>
  <symbol id="icon-caret-up" viewBox="0 0 100 100">
    <path d="M93.36,65.77a5.57,5.57,0,1,1-7.87,7.89L50.08,38.09,14.51,73.66a5.57,5.57,0,1,1-7.87-7.89L46.06,26.34a5.58,5.58,0,0,1,7.88,0Z" fill-rule="evenodd"/>
  </symbol>
  <symbol id="icon-caret-right" viewBox="0 0 100 100">
    <path d="M34.23,93.36a5.57,5.57,0,0,1-7.89-7.87L61.91,50.08,26.34,14.51a5.57,5.57,0,0,1,7.89-7.87L73.66,46.06a5.58,5.58,0,0,1,0,7.88Z" fill-rule="evenodd"/>
  </symbol>
  <symbol id="icon-caret-down" viewBox="0 0 100 100">
    <path d="M6.64,34.23a5.57,5.57,0,0,1,7.87-7.89L49.92,61.91,85.49,26.34a5.57,5.57,0,0,1,7.87,7.89L53.94,73.66a5.58,5.58,0,0,1-7.88,0Z" fill-rule="evenodd"/>
  </symbol>
  <symbol id="icon-caret-left" viewBox="0 0 100 100">
    <path d="M65.77,6.64a5.57,5.57,0,1,1,7.89,7.87L38.09,49.92,73.66,85.49a5.57,5.57,0,1,1-7.89,7.87L26.34,53.94a5.58,5.58,0,0,1,0-7.88Z" fill-rule="evenodd"/>
  </symbol>
  <symbol id="icon-pencil" viewBox="0 0 100 100">
    <path d="m28.11 93.5h-21.61v-21.61l52.65-52.7 10.41-10.37a7.91 7.91 0 0 1 5.61-2.32 7.91 7.91 0 0 1 5.61 2.32l10.4 10.39a8 8 0 0 1 0 11.23l-10.66 10.63zm-14.61-7h11.71l45.65-45.69-11.71-11.72-45.65 45.7zm55.32-67 11.7 11.72 5.71-5.7a.93.93 0 0 0 0-1.31l-10.4-10.4a1 1 0 0 0 -.66-.27.92.92 0 0 0 -.66.27z"/>
  </symbol>
  <symbol id="icon-bin" viewBox="0 0 100 100">
    <path d="M80.09,15.62H66.86l-3.29-3.25a4.06,4.06,0,0,0-2.89-1.19H39.28a4.11,4.11,0,0,0-2.9,1.2l-3.25,3.24H19.91a4.12,4.12,0,0,0-4.11,4.11v6.89a4.12,4.12,0,0,0,4.11,4.12h.29V81.12a12.06,12.06,0,0,0,12,12H67.77a12.06,12.06,0,0,0,12-12V30.74h.33a4.12,4.12,0,0,0,4.11-4.12V19.73A4.12,4.12,0,0,0,80.09,15.62ZM73.54,81.1a5.82,5.82,0,0,1-5.78,5.79H32.21a5.82,5.82,0,0,1-5.79-5.79V30.89H73.54ZM22,21.85H34a4.08,4.08,0,0,0,2.9-1.21l3.25-3.23H59.81l3.29,3.25A4.12,4.12,0,0,0,66,21.85H78v2.66H22Z"/>
  </symbol>
  <symbol id="icon-search" viewBox="0 0 100 100">
    <path d="M60.23,12.11A34.54,34.54,0,0,0,10.05,25.19a34,34,0,0,0-3.6,17.75A34.4,34.4,0,0,0,21.17,69c11.84,8.25,27.67,8,39.62-.12l.12-.09L81.85,89.72a5.72,5.72,0,0,0,8.08,0h0a5.72,5.72,0,0,0,0-8.08L69,60.7l.09-.13a35.33,35.33,0,0,0,5.78-25.85A34.26,34.26,0,0,0,60.23,12.11ZM59.6,59.39l-.38.38a25.19,25.19,0,0,1-17.81,7.37h0a27.19,27.19,0,0,1-18.19-6.75A26.47,26.47,0,1,1,59.54,21.91l.17.17A26.6,26.6,0,0,1,59.6,59.39Z"/>
  </symbol>
  <symbol id="icon-storage" viewBox="0 0 100 100">
    <path d="M88.46,33h-.59l.78-5.06a7.36,7.36,0,0,0-5.94-8.53l-.1,0a8.23,8.23,0,0,0-1.21-.1H78.46l1-6.27A6.31,6.31,0,0,0,74.11,6a5.83,5.83,0,0,0-.84-.06H26.71a6.29,6.29,0,0,0-6.22,6.35,5.79,5.79,0,0,0,.06.83l1,6.25h-3a7.34,7.34,0,0,0-7.27,8.42l.78,5.11a8.65,8.65,0,0,0-8,9.36L8.17,85.59a9.41,9.41,0,0,0,9.4,8.52H82.42a9.42,9.42,0,0,0,9.41-8.52L96,42.22A8.42,8.42,0,0,0,88.46,33ZM26.69,12H73.27l.06.12s0,.05,0,0l-1.13,7.19H27.79l-1.14-7.25L26.7,12ZM17.45,26.85a1.11,1.11,0,0,1,.89-1.24H81.42a1.12,1.12,0,0,1,1.12,1.11l-.92,6.22H18.38ZM10.74,40a2.17,2.17,0,0,1,1.42-.79H87.57a2.19,2.19,0,0,1,1.31.41l.27.33a2.15,2.15,0,0,1,.58,1.65L85.61,85a3.23,3.23,0,0,1-3.22,2.91H17.6A3.22,3.22,0,0,1,14.39,85L10.26,41.59A2.14,2.14,0,0,1,10.74,40Zm20.7,18.2a3.12,3.12,0,0,1,3.11-3.12H65.44a3.12,3.12,0,1,1,0,6.23H34.55A3.11,3.11,0,0,1,31.44,58.2Z"/>
  </symbol>
  <symbol id="icon-transit" viewBox="0 0 100 100">
    <path d="M35.74,32.8h0a3.11,3.11,0,0,1,4.41,0l9.39,9.37a3.12,3.12,0,0,1,0,4.43l-2.2,2.2h0L40.15,56a3.12,3.12,0,0,1-4.44,0h0a3.13,3.13,0,0,1,0-4.4l4.05-4h-16a3.12,3.12,0,0,1-3.12-3.12h0a3.13,3.13,0,0,1,3.12-3.13h16l-4-4A3.11,3.11,0,0,1,35.74,32.8ZM96.25,55.61V68.75a8.76,8.76,0,0,1-8.75,8.74H84.92a12.5,12.5,0,0,1-24.87,0H39.93a12.5,12.5,0,0,1-24.87,0H6.32L3.75,74.92V20a8.76,8.76,0,0,1,8.73-8.73h45A8.77,8.77,0,0,1,66.21,20V33.76H80a11.76,11.76,0,0,1,10.74,7l4.48,10.1A11.61,11.61,0,0,1,96.25,55.61Zm-30,20.64A6.29,6.29,0,0,0,75.09,82a6.12,6.12,0,0,0,3.65-5.71v0a6.26,6.26,0,0,0-12.51,0Zm0-10.8a12.44,12.44,0,0,1,17.72,5.8h3.55A2.52,2.52,0,0,0,90,68.75V55.58a5.4,5.4,0,0,0-.48-2.24L85,43.23A5.5,5.5,0,0,0,80,40H66.21Zm-45,10.8A6.29,6.29,0,0,0,30.1,82a6.13,6.13,0,0,0,3.65-5.71v0a6.26,6.26,0,0,0-12.51,0ZM57.5,17.51h-45A2.5,2.5,0,0,0,10,20V71.25h6a12.48,12.48,0,0,1,22.89,0H60V20A2.49,2.49,0,0,0,57.5,17.51Z"/>
  </symbol>
  <symbol id="icon-inbox" viewBox="0 0 100 100">
    <path d="M41.74,5a3.13,3.13,0,0,0-2.85,3.16A3.13,3.13,0,0,0,42.05,11H58a3.11,3.11,0,0,0,3-3,3.11,3.11,0,0,0-3-3Zm0,8A3.13,3.13,0,0,0,39,16V35H32a3,3,0,0,0-2.37,4.84l18,23a3.16,3.16,0,0,0,4.45.3q.16-.15.3-.3l18-23A3,3,0,0,0,68,35H61V16a3.12,3.12,0,0,0-3-3ZM45,19H55V38a3.12,3.12,0,0,0,3,3h3.81L50,56.1,38.19,41H42a3.11,3.11,0,0,0,3-3ZM20.69,24a3.09,3.09,0,0,0-2.56,2.12L6.19,67.9A5.71,5.71,0,0,0,6,69.74V92a3.1,3.1,0,0,0,3,3H91a3.12,3.12,0,0,0,3-3V68.88a1.91,1.91,0,0,0-.13-.75l-11-41.91A3.09,3.09,0,0,0,80,24H66a1.61,1.61,0,0,0-.31,0A3,3,0,0,0,66,30H77.69l9.43,36H66a3.12,3.12,0,0,0-3,3v5H37V69a3.11,3.11,0,0,0-3-3H13L23.25,30H34a3.13,3.13,0,0,0,3-3,3.12,3.12,0,0,0-3-3ZM12,72H31v5a3.12,3.12,0,0,0,3,3H66a3.13,3.13,0,0,0,3-3V72H88V89H12Z"/>
  </symbol>
</svg>
